<svg width="800" height="400" viewBox="0 0 800 400" xmlns="http://www.w3.org/2000/svg">
  <!-- Sky gradient -->
  <defs>
    <linearGradient id="skyGradient" x1="0%" y1="0%" x2="0%" y2="100%">
      <stop offset="0%" style="stop-color:#87ceeb;stop-opacity:1" />
      <stop offset="100%" style="stop-color:#e0f6ff;stop-opacity:1" />
    </linearGradient>
    <linearGradient id="waterGradient" x1="0%" y1="0%" x2="0%" y2="100%">
      <stop offset="0%" style="stop-color:#4682b4;stop-opacity:1" />
      <stop offset="100%" style="stop-color:#1e40af;stop-opacity:1" />
    </linearGradient>
  </defs>
  
  <!-- Sky -->
  <rect width="800" height="250" fill="url(#skyGradient)"/>
  
  <!-- Water -->
  <rect y="250" width="800" height="150" fill="url(#waterGradient)"/>
  
  <!-- Dock -->
  <rect x="100" y="220" width="600" height="30" fill="#8b4513" stroke="#654321" stroke-width="2"/>
  
  <!-- Dock posts -->
  <rect x="120" y="210" width="8" height="40" fill="#654321"/>
  <rect x="200" y="210" width="8" height="40" fill="#654321"/>
  <rect x="300" y="210" width="8" height="40" fill="#654321"/>
  <rect x="400" y="210" width="8" height="40" fill="#654321"/>
  <rect x="500" y="210" width="8" height="40" fill="#654321"/>
  <rect x="600" y="210" width="8" height="40" fill="#654321"/>
  <rect x="680" y="210" width="8" height="40" fill="#654321"/>
  
  <!-- Boats -->
  <!-- Sailboat 1 -->
  <g transform="translate(150, 280)">
    <ellipse cx="0" cy="0" rx="30" ry="8" fill="#ffffff"/>
    <line x1="0" y1="-40" x2="0" y2="10" stroke="#8b4513" stroke-width="3"/>
    <path d="M 0,-40 L -20,-10 L 0,0 Z" fill="#f0f8ff"/>
    <path d="M 0,-35 L 15,-15 L 0,-5 Z" fill="#e6f3ff"/>
  </g>
  
  <!-- Sailboat 2 -->
  <g transform="translate(250, 290)">
    <ellipse cx="0" cy="0" rx="25" ry="6" fill="#ffffff"/>
    <line x1="0" y1="-35" x2="0" y2="8" stroke="#8b4513" stroke-width="2"/>
    <path d="M 0,-35 L -18,-8 L 0,-2 Z" fill="#f0f8ff"/>
  </g>
  
  <!-- Motor yacht -->
  <g transform="translate(450, 285)">
    <ellipse cx="0" cy="0" rx="40" ry="10" fill="#ffffff"/>
    <rect x="-25" y="-15" width="50" height="10" fill="#ffffff" rx="2"/>
    <rect x="-15" y="-25" width="30" height="10" fill="#ffffff" rx="2"/>
    <rect x="-5" y="-30" width="10" height="5" fill="#ffffff" rx="1"/>
  </g>
  
  <!-- Power boat -->
  <g transform="translate(580, 290)">
    <ellipse cx="0" cy="0" rx="35" ry="8" fill="#ffffff"/>
    <rect x="-20" y="-12" width="40" height="8" fill="#ffffff" rx="2"/>
    <rect x="-10" y="-18" width="20" height="6" fill="#ffffff" rx="1"/>
  </g>
  
  <!-- Clouds -->
  <ellipse cx="150" cy="80" rx="30" ry="15" fill="#ffffff" opacity="0.8"/>
  <ellipse cx="170" cy="75" rx="25" ry="12" fill="#ffffff" opacity="0.8"/>
  <ellipse cx="140" cy="85" rx="20" ry="10" fill="#ffffff" opacity="0.8"/>
  
  <ellipse cx="500" cy="60" rx="35" ry="18" fill="#ffffff" opacity="0.7"/>
  <ellipse cx="525" cy="55" rx="30" ry="15" fill="#ffffff" opacity="0.7"/>
  <ellipse cx="480" cy="65" rx="25" ry="12" fill="#ffffff" opacity="0.7"/>
  
  <!-- Sun -->
  <circle cx="650" cy="100" r="40" fill="#ffd700" opacity="0.9"/>
  
  <!-- Water reflections -->
  <path d="M 0,350 Q 100,340 200,350 Q 300,360 400,350 Q 500,340 600,350 Q 700,360 800,350" 
        stroke="#87ceeb" stroke-width="2" fill="none" opacity="0.5"/>
  <path d="M 0,370 Q 100,360 200,370 Q 300,380 400,370 Q 500,360 600,370 Q 700,380 800,370" 
        stroke="#87ceeb" stroke-width="2" fill="none" opacity="0.3"/>
</svg> 